<svg width="512" height="390" viewBox="0 0 512 390" fill="none" xmlns="http://www.w3.org/2000/svg">
<path d="M467 0H165C140.18 0 120 20.19 120 45C120 69.82 140.18 90 165 90H467C491.81 90 512 69.82 512 45C512 20.19 491.81 0 467 0Z" fill="white"/>
<path d="M467 150H165C140.18 150 120 170.19 120 195C120 219.82 140.18 240 165 240H467C491.81 240 512 219.82 512 195C512 170.19 491.81 150 467 150Z" fill="white"/>
<path d="M467 300H165C140.18 300 120 320.19 120 345C120 369.82 140.18 390 165 390H467C491.81 390 512 369.82 512 345C512 320.19 491.81 300 467 300Z" fill="white"/>
<path d="M45 0C20.18 0 0 20.19 0 45C0 69.82 20.18 90 45 90C69.81 90 90 69.82 90 45C90 20.19 69.81 0 45 0Z" fill="white"/>
<path d="M45 150C20.18 150 0 170.19 0 195C0 219.82 20.18 240 45 240C69.81 240 90 219.82 90 195C90 170.19 69.81 150 45 150Z" fill="white"/>
<path d="M45 300C20.18 300 0 320.19 0 345C0 369.82 20.18 390 45 390C69.81 390 90 369.82 90 345C90 320.19 69.81 300 45 300Z" fill="white"/>
</svg>
